<svg
            xmlns="http://www.w3.org/2000/svg"
            width="238"
            height="303"
            viewBox="0 0 238 303"
            fill="none"
          >
            <path
              fill-rule="evenodd"
              clip-rule="evenodd"
              d="M119.181 17.2609C123.477 17.2609 127.394 15.5779 130.349 12.8139C138.256 5.42011 142.209 1.7232 143.087 1.21317C144.723 0.262245 143.74 0.65045 145.585 0.227079C146.574 1.64931e-06 147.78 1.6203e-06 150.191 1.56228e-06L215.12 0C227.496 0 237.529 10.0326 237.529 22.4084V279.656C237.529 292.032 227.496 302.065 215.12 302.065H22.4084C10.0326 302.065 0 292.032 0 279.657V22.4084C0 10.0326 10.0326 0 22.4084 0L88.171 1.56587e-06C90.5823 1.62328e-06 91.788 1.65199e-06 92.7775 0.227079C94.6224 0.65045 93.639 0.262246 95.2757 1.21317C96.1535 1.7232 100.107 5.42011 108.013 12.8139C110.969 15.5779 114.885 17.2609 119.181 17.2609Z"
              fill="white"
            />
          </svg>