<svg width="25" height="25" viewBox="0 0 25 25" fill="none" xmlns="http://www.w3.org/2000/svg">
<path d="M12.5 18.75C12.8542 18.75 13.1513 18.63 13.3913 18.39C13.6313 18.15 13.7508 17.8533 13.75 17.5V12.5C13.75 12.1458 13.63 11.8492 13.39 11.61C13.15 11.3708 12.8533 11.2508 12.5 11.25C12.1467 11.2492 11.85 11.3692 11.61 11.61C11.37 11.8508 11.25 12.1475 11.25 12.5V17.5C11.25 17.8542 11.37 18.1512 11.61 18.3912C11.85 18.6312 12.1467 18.7508 12.5 18.75ZM12.5 8.75C12.8542 8.75 13.1513 8.63 13.3913 8.39C13.6313 8.15 13.7508 7.85333 13.75 7.5C13.7492 7.14667 13.6292 6.85 13.39 6.61C13.1508 6.37 12.8542 6.25 12.5 6.25C12.1458 6.25 11.8492 6.37 11.61 6.61C11.3708 6.85 11.2508 7.14667 11.25 7.5C11.2492 7.85333 11.3692 8.15042 11.61 8.39125C11.8508 8.63208 12.1475 8.75167 12.5 8.75ZM12.5 25C10.7708 25 9.14584 24.6717 7.625 24.015C6.10417 23.3583 4.78125 22.4679 3.65625 21.3438C2.53125 20.2196 1.64084 18.8967 0.985002 17.375C0.329168 15.8533 0.000834916 14.2283 1.58228e-06 12.5C-0.000831751 10.7717 0.327502 9.14667 0.985002 7.625C1.6425 6.10333 2.53292 4.78042 3.65625 3.65625C4.77958 2.53208 6.1025 1.64167 7.625 0.985C9.1475 0.328333 10.7725 0 12.5 0C14.2275 0 15.8525 0.328333 17.375 0.985C18.8975 1.64167 20.2204 2.53208 21.3438 3.65625C22.4671 4.78042 23.3579 6.10333 24.0163 7.625C24.6746 9.14667 25.0025 10.7717 25 12.5C24.9975 14.2283 24.6692 15.8533 24.015 17.375C23.3608 18.8967 22.4704 20.2196 21.3438 21.3438C20.2171 22.4679 18.8942 23.3587 17.375 24.0162C15.8558 24.6737 14.2308 25.0017 12.5 25Z" fill="#00A7FB"/>
</svg>
