<svg width="1280" height="832" viewBox="0 0 1280 832" fill="none" xmlns="http://www.w3.org/2000/svg">
<g filter="url(#filter0_f_199_283)">
<path d="M526.002 203.347C465.687 162.011 304.54 108.738 142.478 226.337C100.085 268.251 89.2296 373.37 89.1009 420.69C106.507 497.865 179.269 662.604 331.066 704.152C520.812 756.087 721.834 729.247 780.815 733.879C839.797 738.511 1055.76 639.613 1170.51 476.167C1262.3 345.41 1133.03 247.102 1056.92 214.292C1056.92 214.292 857.692 168.815 790.179 228.098C722.667 287.382 585.931 236.299 526.002 203.347Z" fill="url(#paint0_linear_199_283)" fill-opacity="0.3"/>
<path d="M526.002 203.347C465.687 162.011 304.54 108.738 142.478 226.337C100.085 268.251 89.2296 373.37 89.1009 420.69C106.507 497.865 179.269 662.604 331.066 704.152C520.812 756.087 721.834 729.247 780.815 733.879C839.797 738.511 1055.76 639.613 1170.51 476.167C1262.3 345.41 1133.03 247.102 1056.92 214.292C1056.92 214.292 857.692 168.815 790.179 228.098C722.667 287.382 585.931 236.299 526.002 203.347Z" stroke="black" stroke-width="1.83646"/>
</g>
<defs>
<filter id="filter0_f_199_283" x="-187.287" y="-121.669" width="1665.88" height="1134.83" filterUnits="userSpaceOnUse" color-interpolation-filters="sRGB">
<feFlood flood-opacity="0" result="BackgroundImageFix"/>
<feBlend mode="normal" in="SourceGraphic" in2="BackgroundImageFix" result="shape"/>
<feGaussianBlur stdDeviation="137.734" result="effect1_foregroundBlur_199_283"/>
</filter>
<linearGradient id="paint0_linear_199_283" x1="646.326" y1="155.513" x2="644.745" y2="736.865" gradientUnits="userSpaceOnUse">
<stop stop-color="#FBBF3A"/>
<stop offset="0.57" stop-color="#F5710C"/>
</linearGradient>
</defs>
</svg>
