<svg xmlns="http://www.w3.org/2000/svg" viewBox="0 0 1008 673" fill="none">
  <mask id="path-1-inside-1_62_129" fill="white">
    <path fill-rule="evenodd" clip-rule="evenodd" d="M513 23.1777C513 10.7513 523.074 0.677734 535.5 0.677734H985.5C997.926 0.677734 1008 10.7513 1008 23.1777V334.578C1008 347.004 997.926 357.078 985.5 357.078H517.5C505.074 357.078 495 367.151 495 379.578V650.478C495 662.904 484.926 672.978 472.5 672.978L22.5 672.978C10.0736 672.978 0 662.904 0 650.478V339.078C0 326.651 10.0736 316.578 22.5 316.578H490.5C502.926 316.578 513 306.504 513 294.078V23.1777Z"/>
  </mask>
  <path d="M22.5 672.978V668.478V672.978ZM472.5 672.978V677.478V672.978ZM985.5 -3.82227H535.5V5.17773H985.5V-3.82227ZM1012.5 334.578V23.1777H1003.5V334.578H1012.5ZM517.5 361.578H985.5V352.578H517.5V361.578ZM499.5 650.478V379.578H490.5V650.478H499.5ZM22.5 677.478L472.5 677.478V668.478L22.5 668.478V677.478ZM-4.5 339.078V650.478H4.5V339.078H-4.5ZM490.5 312.078H22.5V321.078H490.5V312.078ZM508.5 23.1777V294.078H517.5V23.1777H508.5ZM490.5 321.078C505.412 321.078 517.5 308.989 517.5 294.078H508.5C508.5 304.019 500.441 312.078 490.5 312.078V321.078ZM4.5 339.078C4.5 329.137 12.5589 321.078 22.5 321.078V312.078C7.58836 312.078 -4.5 324.166 -4.5 339.078H4.5ZM22.5 668.478C12.5589 668.478 4.5 660.419 4.5 650.478H-4.5C-4.5 665.389 7.58832 677.478 22.5 677.478V668.478ZM490.5 650.478C490.5 660.419 482.441 668.478 472.5 668.478V677.478C487.412 677.478 499.5 665.389 499.5 650.478H490.5ZM517.5 352.578C502.588 352.578 490.5 364.666 490.5 379.578H499.5C499.5 369.637 507.559 361.578 517.5 361.578V352.578ZM1003.5 334.578C1003.5 344.519 995.441 352.578 985.5 352.578V361.578C1000.41 361.578 1012.5 349.489 1012.5 334.578H1003.5ZM535.5 -3.82227C520.588 -3.82227 508.5 8.26604 508.5 23.1777H517.5C517.5 13.2366 525.559 5.17773 535.5 5.17773V-3.82227ZM985.5 5.17773C995.441 5.17773 1003.5 13.2366 1003.5 23.1777H1012.5C1012.5 8.26603 1000.41 -3.82227 985.5 -3.82227V5.17773Z" fill="url(#paint0_linear_62_129)" mask="url(#path-1-inside-1_62_129)"/>
  <defs>
    <linearGradient id="paint0_linear_62_129" x1="1063.8" y1="-63.2222" x2="3.44802e-05" y2="684.678" gradientUnits="userSpaceOnUse">
      <stop stop-color="#F77D10"/>
      <stop offset="1" stop-color="#F9D752"/>
    </linearGradient>
  </defs>
</svg>